<svg id="Layer_2" data-name="Layer 2" xmlns="http://www.w3.org/2000/svg" width="500" height="500" viewBox="0 0 497.62 473.93"><defs><style>.cls-1{fill:#0083b0;}</style></defs><title>organic1</title><path class="cls-1" d="M500,.44,16.07-.93a87.74,87.74,0,0,0,74,134.81,88.39,88.39,0,0,0,12.4-.89h0l.09,0a87.14,87.14,0,0,0,17.24-4.28c72.42-17.1,346.29-72.61,327.08,70.79,0,0-46.52,97.78-53.67,169a87.89,87.89,0,0,0,1,38.28l0,.1h0A87.73,87.73,0,0,0,500,470.53Z" transform="translate(-2.38 0.93)"/></svg>